# AST/ASF file generated using VICON BodyLanguage
# -----------------------------------------------
:version 1.10
:name VICON
:units
  mass 1.0
  length 0.45
  angle deg
:documentation
   .ast/.asf automatically generated from VICON data using
   VICON BodyBuilder and BodyLanguage model FoxedUp or BRILLIANT.MOD
:root
   order TX TY TZ RX RY RZ
   axis XYZ
   position 0 0 0  
   orientation 0 0 0 
:bonedata
  begin
     id 1 
     name lhipjoint
     direction 0.566809 -0.746272 0.349008 
     length 2.40479 
     axis 0 0 0  XYZ
  end
  begin
     id 2 
     name lfemur
     direction 0.34202 -0.939693 0  
     length 7.1578  
     axis 0 0 20  XYZ
    dof rx ry rz
    limits (-160.0 20.0)
           (-70.0 70.0)
           (-60.0 70.0)
  end
  begin
     id 3 
     name ltibia
     direction 0.34202 -0.939693 0   
     length 7.49137   
     axis 0 0 20   XYZ
    dof rx
    limits (-10.0 170.0)
  end
  begin
     id 4 
     name lfoot
     direction 0.0665746 -0.182912 0.980873   
     length 2.36784   
     axis -90 7.62852e-016 20   XYZ
    dof rx rz
    limits (-45.0 90.0)
           (-70.0 20.0)
  end
  begin
     id 5 
     name ltoes
     direction 1.53601e-011 -4.22058e-011 1   
     length 1.18966   
     axis -90 7.62852e-016 20   XYZ
    dof rx
    limits (-90.0 20.0)
  end
  begin
     id 6 
     name rhipjoint
     direction -0.550236 -0.756381 0.353735   
     length 2.37265  
     axis 0 0 0  XYZ 
  end
  begin
     id 7 
     name rfemur
     direction -0.34202 -0.939693 0   
     length 7.43386   
     axis 0 0 -20   XYZ
    dof rx ry rz
    limits (-160.0 20.0)
           (-70.0 70.0)
           (-70.0 60.0)
  end
  begin
     id 8 
     name rtibia
     direction -0.34202 -0.939693 0   
     length 7.50908   
     axis 0 0 -20   XYZ
    dof rx
    limits (-10.0 170.0)
 end
 begin
     id 9 
     name rfoot
     direction -0.0683029 -0.187661 0.979856   
     length 2.41173  
     axis -90 -7.62852e-016 -20   XYZ
    dof rx rz
    limits (-45.0 90.0)
           (-20.0 70.0)
  end
  begin
     id 10 
     name rtoes
     direction -1.53528e-011 -4.21968e-011 1   
     length 1.21082   
     axis -90 -7.62852e-016 -20   XYZ
    dof rx
    limits (-90.0 20.0)
  end
  begin
     id 11 
     name lowerback
     direction 0.013823 0.995423 -0.0945635   
     length 2.04495   
     axis 0 0 0   XYZ
    dof rx ry rz
    limits (-20.0 45.0)
           (-30.0 30.0)
           (-30.0 30.0)
  end
  begin
     id 12 
     name upperback
     direction 0.0276657 0.9994 -0.020853   
     length 2.05008   
     axis 0 0 0   XYZ
    dof rx ry rz
    limits (-20.0 45.0)
           (-30.0 30.0)
           (-30.0 30.0)
  end
  begin
     id 13 
     name thorax
     direction 0.019782 0.999531 0.0233827   
     length 2.06488   
     axis 0 0 0   XYZ
    dof rx ry rz
    limits (-20.0 45.0)
           (-30.0 30.0)
           (-30.0 30.0)
  end
  begin
     id 14 
     name lowerneck
     direction -0.0308541 0.994709 0.0979874   
     length 1.75553   
     axis 0 0 0   XYZ
    dof rx ry rz
    limits (-20.0 45.0)
           (-30.0 30.0)
           (-30.0 30.0)
  end
  begin
     id 15 
     name upperneck
     direction 0.0588398 0.995804 -0.0700903   
     length 1.76878   
     axis 0 0 0   XYZ
    dof rx ry rz
    limits (-20.0 45.0)
           (-30.0 30.0)
           (-30.0 30.0)
  end
  begin
     id 16
     name head
     direction 0.0209966 0.999159 -0.0352225  
     length 1.77193  
     axis 0 0 0   XYZ
    dof rx ry rz
    limits (-20.0 45.0)
           (-30.0 30.0)
           (-30.0 30.0)
  end
  begin
     id 17 
     name lclavicle
     direction 0.938182 0.335073 -0.0868338  
     length 3.58396  
     axis 0 0 0   XYZ
    dof ry rz
    limits (-20.0 10.0)
           (0.0 20.0)
  end
  begin
     id 18 
     name lhumerus
     direction 1 -4.48971e-011 -1.26313e-017   
     length 4.983   
     axis 180 -30 -90   XYZ
    dof rx ry rz
    limits (-60.0 90.0)
           (-90.0 90.0)
           (-90.0 90.0)
  end
  begin
     id 19
     name lradius
     direction 1 -4.48948e-011 -5.89033e-027   
     length 3.48356   
     axis 180 -30 -90   XYZ
    dof rx
    limits (-10.0 170.0)
  end
  begin
     id 20
     name lwrist
     direction 1 -4.48977e-011 -1.48983e-026   
     length 1.74178   
     axis 9.0955e-015 90 90   XYZ
    dof ry
    limits (-180.0 0.0)
 end
  begin
     id 21 
     name lhand
     direction 1 -4.49046e-011 -2.98066e-026   
     length 0.715259   
     axis 1.90115e-014 90 90   XYZ
    dof rx rz
    limits (-90.0 90.0)
           (-45.0 45.0)
  end
  begin
     id 22 
     name lfingers
     direction 1 -4.48907e-011 -5.95731e-026   
     length 0.576661   
     axis 3.80223e-014 90 90   XYZ
    dof rx
    limits (0.0 90.0)
  end
  begin
     id 23
     name lthumb
     direction 0.707107 -6.34963e-011 0.707107   
     length 0.827973   
     axis -90 45 -3.84942e-014   XYZ
    dof rx rz
    limits (-45.0 45.0)
           (-45.0 45.0)
  end
  begin
     id 24 
     name rclavicle
     direction -0.909637 0.398485 -0.11735   
     length 3.44819  
     axis 0 0 0   XYZ 
    dof ry rz
    limits (-10.0 20.0)
           (-20.0 0.0)
  end
  begin
     id 25 
     name rhumerus
     direction -1 -4.48978e-011 -1.09333e-027  
     length 5.2419   
     axis 180 30 90   XYZ
    dof rx ry rz
    limits (-90.0 60.0)
           (-90.0 90.0)
           (-90.0 90.0)
  end
  begin
     id 26 
     name rradius
     direction -1 -4.48953e-011 -7.61841e-027   
     length 3.44417   
     axis 180 30 90   XYZ
    dof rx
    limits (-10.0 170.0)
  end
  begin
     id 27 
     name rwrist
     direction -1 -4.48977e-011 -1.48983e-026   
     length 1.72209   
     axis 9.0955e-015 -90 -90   XYZ
    dof ry
    limits (-180.0 0.0)
  end
  begin
     id 28
     name rhand
     direction -1 -4.49027e-011 -2.98038e-026   
     length 0.622529   
     axis 1.90115e-014 -90 -90   XYZ
    dof rx rz
    limits (-90.0 90.0)
           (-45.0 45.0)
  end
  begin
     id 29
     name rfingers
     direction -1 -4.48838e-011 -5.95531e-026   
     length 0.501899   
     axis 3.80223e-014 -90 -90   XYZ
    dof rx
    limits (0.0 90.0)
  end
  begin
     id 30
     name rthumb
     direction -0.707107 -6.34937e-011 0.707107   
     length 0.720629   
     axis -90 -45 3.84942e-014   XYZ
    dof rx rz
    limits (-45.0 45.0)
           (-45.0 45.0)
  end
:hierarchy
  begin
    root lhipjoint rhipjoint lowerback
    lhipjoint lfemur
    lfemur ltibia
    ltibia lfoot
    lfoot ltoes
    rhipjoint rfemur
    rfemur rtibia
    rtibia rfoot
    rfoot rtoes
    lowerback upperback
    upperback thorax
    thorax lowerneck lclavicle rclavicle
    lowerneck upperneck
    upperneck head
    lclavicle lhumerus
    lhumerus lradius
    lradius lwrist
    lwrist lhand lthumb
    lhand lfingers
    rclavicle rhumerus
    rhumerus rradius
    rradius rwrist
    rwrist rhand rthumb
    rhand rfingers
  end

#!OML:ASF F:\VICON\USERDATA\Patient Classification 1\PLAYGROUND\JustinFriday\JustinFriday.ASF
:FULLY-SPECIFIED
:DEGREES
136
root -8.71835 17.6749 20.7261 178.682 -36.5129 -170.74
lowerback 8.96254 2.39015 7.50169
upperback 3.65465 3.46983 3.95469
thorax -0.990231 1.5929 -0.421891
lowerneck -6.86875 -5.57277 -5.4031
upperneck 17.9545 -7.47801 0.131946
head 6.82008 -4.12986 0.309242
rclavicle 3.95581e-014 0
rhumerus -28.9127 -23.37 -71.0456
rradius 19.8681
rwrist -2.80889
rhand -19.6979 -22.8142
rfingers 7.12502
rthumb 6.63143 -52.6904
lclavicle 3.95581e-014 0
lhumerus -35.0843 9.15765 82.4072
lradius 30.8197
lwrist -1.00251
lhand -10.8499 -8.16055
lfingers 7.12502
lthumb 15.1651 21.2638
rfemur 11.423 -2.61039 31.7168
rtibia 4.42105
rfoot -12.2355 7.66876
rtoes 19.1722
lfemur -33.5302 6.49905 -10.6207
ltibia 28.8871
lfoot -10.8674 0.153689
ltoes -9.61565
137
root -8.78008 17.6692 20.6669 178.519 -36.4216 -170.37
lowerback 8.90727 2.42336 7.79622
upperback 3.77061 3.50131 4.11595
thorax -0.825126 1.6065 -0.412947
lowerneck -7.52151 -5.87103 -6.93752
upperneck 18.7046 -7.95466 1.71312
head 7.32482 -4.33244 0.978732
rclavicle -3.27995e-014 1.66979e-014
rhumerus -28.6555 -23.1857 -71.2983
rradius 19.964
rwrist -3.13167
rhand -19.0432 -23.1802
rfingers 7.12502
rthumb 7.26342 -53.0355
lclavicle -3.27995e-014 1.66979e-014
lhumerus -34.9488 8.91129 82.6948
lradius 31.0686
lwrist -0.52963
lhand -10.3065 -8.76584
lfingers 7.12502
lthumb 15.6885 20.6182
rfemur 13.8742 -2.60044 31.9328
rtibia 9.54166e-015
rfoot -10.2241 7.63086
rtoes 18.1371
lfemur -33.803 6.26222 -10.3988
ltibia 28.2169
lfoot -11.3884 0.290694
ltoes -3.99398
138
root -8.8451 17.6675 20.6058 178.533 -36.1439 -170.05
lowerback 8.76889 2.44308 8.04267
upperback 3.82909 3.50983 4.27336
thorax -0.678692 1.60901 -0.377319
lowerneck -7.41532 -5.68996 -6.73544
upperneck 18.3107 -7.66666 1.48119
head 7.1468 -4.19237 0.909777
rclavicle -4.55217e-014 2.46493e-014
rhumerus -28.2677 -22.7619 -71.5963
rradius 19.941
rwrist -3.29548
rhand -20.3544 -20.1942
rfingers 7.12502
rthumb 5.9977 -50.0893
lclavicle -4.55217e-014 2.46493e-014
lhumerus -34.9479 8.99643 82.8477
lradius 31.295
lwrist -0.306557
lhand -9.64414 -10.0213
lfingers 7.12502
lthumb 16.3263 19.3115
rfemur 13.98 -2.38157 32.1325
rtibia 4.77083e-014
rfoot -10.3338 7.92846
rtoes 16.9161
lfemur -34.1722 5.90925 -10.0519
ltibia 27.6605
lfoot -11.609 0.82031
ltoes -1.69026
139
root -8.90544 17.6568 20.5427 178.662 -35.9324 -169.999
lowerback 8.84597 2.48539 8.08512
upperback 3.77658 3.58416 4.25864
thorax -0.767575 1.64333 -0.426841
lowerneck -7.23142 -5.62251 -6.36767
upperneck 18.0288 -7.5934 1.33158
head 6.99802 -4.1415 0.821145
rclavicle 2.54444e-014 -2.38542e-015
rhumerus -28.2498 -22.5881 -71.9092
rradius 20.0976
rwrist -3.30832
rhand -19.6573 -20.7391
rfingers 7.12502
rthumb 6.67064 -50.6141
lclavicle 2.54444e-014 -2.38542e-015
lhumerus -35.0391 9.0665 82.6044
lradius 31.2969
lwrist -0.97716
lhand -9.44386 -11.2986
lfingers 7.12502
lthumb 16.5191 18.0182
rfemur 14.1512 -2.23629 32.1394
rtibia -2.22639e-014
rfoot -10.3312 8.10664
rtoes 16.4811
lfemur -34.5053 5.58327 -9.9916
ltibia 27.1493
lfoot -12.1383 1.31102
ltoes -0.827681
140
root -8.96731 17.6422 20.4795 178.705 -35.6906 -169.893
lowerback 8.92116 2.50161 8.07324
upperback 3.79024 3.60558 4.31987
thorax -0.797799 1.64925 -0.361672
lowerneck -7.31145 -5.66639 -6.25245
upperneck 17.9317 -7.64008 1.25581
head 6.97477 -4.15782 0.773634
rclavicle -1.27222e-013 -1.11319e-014
rhumerus -28.2188 -22.6584 -72.1105
rradius 20.4018
rwrist -2.833
rhand -18.5452 -22.3858
rfingers 7.12502
rthumb 7.74413 -52.224
lclavicle -1.27222e-013 -1.11319e-014
lhumerus -35.0689 9.11183 82.5159
lradius 31.3676
lwrist -1.14251
lhand -11.0578 -8.64299
lfingers 7.12502
lthumb 14.9648 20.7963
rfemur 14.3889 -2.07579 32.2027
rtibia 2.8625e-014
rfoot -10.173 8.27525
rtoes 17.7833
lfemur -34.7007 5.28594 -9.87036
ltibia 26.5411
lfoot -12.3295 1.74478
ltoes -1.93874
141
root -9.02971 17.6292 20.412 178.792 -35.3819 -169.803
lowerback 8.88832 2.53358 8.01674
upperback 3.86283 3.62368 4.39918
thorax -0.711174 1.65636 -0.246314
lowerneck -7.13661 -5.33288 -5.24237
upperneck 17.3749 -7.09571 0.115763
head 6.66226 -3.91465 0.314657
rclavicle 7.7526e-014 -6.36111e-015
rhumerus -28.0058 -22.4528 -72.4971
rradius 20.6584
rwrist -2.58455
rhand -18.5238 -22.177
rfingers 7.12502
rthumb 7.76475 -52.0144
lclavicle 7.7526e-014 -6.36111e-015
lhumerus -35.0066 8.93793 82.7144
lradius 31.6907
lwrist -0.303459
lhand -10.88 -8.78638
lfingers 7.12502
lthumb 15.1361 20.6401
rfemur 14.6244 -1.84046 32.2447
rtibia -5.08889e-014
rfoot -10.1699 8.42212
rtoes 19.0753
lfemur -34.8106 5.16527 -9.77449
ltibia 25.7928
lfoot -12.794 2.12291
ltoes -3.46039
142
root -9.08717 17.6124 20.3421 178.909 -35.1863 -169.792
lowerback 8.90223 2.57003 7.79032
upperback 3.93074 3.64043 4.52802
thorax -0.670997 1.65881 0.0110114
lowerneck -8.38349 -5.76378 -7.85953
upperneck 18.94 -7.76464 2.64536
head 7.62313 -4.20898 1.41526
rclavicle 6.54002e-014 -3.4191e-014
rhumerus -27.6742 -21.4734 -73.1337
rradius 20.724
rwrist -3.90676
rhand -19.2574 -18.9721
rfingers 7.12502
rthumb 7.05673 -48.8345
lclavicle 6.54002e-014 -3.4191e-014
lhumerus -34.9175 8.85353 82.9255
lradius 31.8736
lwrist -0.0968105
lhand -10.6207 -10.6724
lfingers 7.12502
lthumb 15.3858 18.7351
rfemur 14.8668 -1.71948 32.2298
rtibia -2.54444e-014
rfoot -10.4393 8.44225
rtoes 19.2973
lfemur -34.955 5.09293 -9.8369
ltibia 25.1218
lfoot -13.207 2.70021
ltoes -5.52403
143
root -9.15536 17.6044 20.2773 179.296 -34.9642 -170.01
lowerback 8.76499 2.62321 7.52774
upperback 3.95406 3.67623 4.55008
thorax -0.589721 1.67785 0.181617
lowerneck -7.68885 -5.41827 -6.16254
upperneck 17.6222 -7.18649 0.921959
head 6.90777 -3.94586 0.687727
rclavicle 3.598e-014 -3.89618e-014
rhumerus -27.437 -21.452 -73.185
rradius 20.8941
rwrist -2.13721
rhand -15.5622 -27.5507
rfingers 7.12502
rthumb 10.6225 -57.2622
lclavicle 3.598e-014 -3.89618e-014
lhumerus -34.9082 8.76018 83.0362
lradius 32.0333
lwrist -0.381184
lhand -12.422 -8.1344
lfingers 7.12502
lthumb 13.6503 21.398
rfemur 14.9214 -1.52985 31.9761
rtibia -6.36111e-015
rfoot -10.6064 8.47397
rtoes 19.4667
lfemur -35.2069 4.67694 -10.0075
ltibia 24.5468
lfoot -13.6043 3.52912
ltoes -5.59572
144
root -9.23102 17.5991 20.2028 179.457 -34.4349 -170.232
lowerback 8.84914 2.77442 7.38975
upperback 3.98809 3.87771 4.41397
thorax -0.591809 1.78157 0.0969146
lowerneck -8.20759 -5.57319 -7.15837
upperneck 18.3885 -7.50533 2.27579
head 7.35232 -4.05834 1.22311
rclavicle -4.73108e-014 -1.59028e-014
rhumerus -27.3076 -20.3783 -74.1139
rradius 21.0607
rwrist -4.13371
rhand -18.4827 -23.8436
rfingers 7.12502
rthumb 7.80444 -53.6796
lclavicle -4.73108e-014 -1.59028e-014
lhumerus -35.0505 8.36049 82.9772
lradius 32.4043
lwrist -0.0438028
lhand -11.2798 -9.34962
lfingers 7.12502
lthumb 14.7509 20.1055
rfemur 15.3458 -1.09139 31.7303
rtibia -4.77083e-014
rfoot -10.7706 8.42324
rtoes 19.0334
lfemur -35.0719 4.14558 -9.94851
ltibia 24.1025
lfoot -14.3792 4.21949
ltoes -3.17568
